<svg width="16" height="24" viewBox="0 0 16 24" fill="none" xmlns="http://www.w3.org/2000/svg">
<path d="M8.00303 10.4063C6.01553 10.4063 4.4124 12.0095 4.4124 13.997C4.4124 15.9845 6.01553 17.5876 8.00303 17.5876C9.99053 17.5876 11.5937 15.9845 11.5937 13.997C11.5937 12.0095 9.99053 10.4063 8.00303 10.4063ZM8.00303 16.3313C6.71865 16.3313 5.66865 15.2845 5.66865 13.997C5.66865 12.7095 6.71553 11.6626 8.00303 11.6626C9.29053 11.6626 10.3374 12.7095 10.3374 13.997C10.3374 15.2845 9.2874 16.3313 8.00303 16.3313ZM12.578 10.2595C12.578 10.7251 12.203 11.097 11.7405 11.097C11.2749 11.097 10.903 10.722 10.903 10.2595C10.903 9.79697 11.278 9.42197 11.7405 9.42197C12.203 9.42197 12.578 9.79697 12.578 10.2595ZM14.9562 11.1095C14.903 9.9876 14.6468 8.99385 13.8249 8.1751C13.0062 7.35635 12.0124 7.1001 10.8905 7.04385C9.73428 6.97822 6.26865 6.97822 5.1124 7.04385C3.99365 7.09697 2.9999 7.35322 2.17803 8.17197C1.35615 8.99072 1.10303 9.98447 1.04678 11.1063C0.981152 12.2626 0.981152 15.7282 1.04678 16.8845C1.0999 18.0063 1.35615 19.0001 2.17803 19.8188C2.9999 20.6376 3.99053 20.8938 5.1124 20.9501C6.26865 21.0157 9.73428 21.0157 10.8905 20.9501C12.0124 20.897 13.0062 20.6407 13.8249 19.8188C14.6437 19.0001 14.8999 18.0063 14.9562 16.8845C15.0218 15.7282 15.0218 12.2657 14.9562 11.1095ZM13.4624 18.1251C13.2187 18.7376 12.7468 19.2095 12.1312 19.4563C11.2093 19.822 9.02178 19.7376 8.00303 19.7376C6.98428 19.7376 4.79365 19.8188 3.8749 19.4563C3.2624 19.2126 2.79053 18.7407 2.54365 18.1251C2.17803 17.2032 2.2624 15.0157 2.2624 13.997C2.2624 12.9782 2.18115 10.7876 2.54365 9.86885C2.7874 9.25635 3.25928 8.78447 3.8749 8.5376C4.79678 8.17197 6.98428 8.25635 8.00303 8.25635C9.02178 8.25635 11.2124 8.1751 12.1312 8.5376C12.7437 8.78135 13.2155 9.25322 13.4624 9.86885C13.828 10.7907 13.7437 12.9782 13.7437 13.997C13.7437 15.0157 13.828 17.2063 13.4624 18.1251Z" fill="#9CA3AF"/>
</svg>
