<svg width="16" height="24" viewBox="0 0 16 24" fill="none" xmlns="http://www.w3.org/2000/svg">
<path d="M15.2682 10.3355C15.0937 9.67853 14.5797 9.16114 13.927 8.98556C12.7439 8.6665 7.99999 8.6665 7.99999 8.6665C7.99999 8.6665 3.2561 8.6665 2.07302 8.98556C1.42032 9.16117 0.906267 9.67853 0.731795 10.3355C0.414795 11.5262 0.414795 14.0106 0.414795 14.0106C0.414795 14.0106 0.414795 16.495 0.731795 17.6858C0.906267 18.3427 1.42032 18.8385 2.07302 19.0141C3.2561 19.3332 7.99999 19.3332 7.99999 19.3332C7.99999 19.3332 12.7439 19.3332 13.927 19.0141C14.5797 18.8385 15.0937 18.3427 15.2682 17.6858C15.5852 16.495 15.5852 14.0106 15.5852 14.0106C15.5852 14.0106 15.5852 11.5262 15.2682 10.3355ZM6.44846 16.2663V11.755L10.4134 14.0107L6.44846 16.2663Z" fill="#9CA3AF"/>
</svg>
